<svg xmlns="http://www.w3.org/2000/svg" width="540" height="360" viewBox="0 0 540 360" xmlns:xlink="http://www.w3.org/1999/xlink">
  <defs>
    <path id="a" d="M5.32907052e-15,1.19357641 L0.508436883,41.0633591 C14.1905989,39.8164473 23.9186455,39.1143009 29.6925767,38.9569199 C31.6078242,38.9047157 33.45121,38.9025514 35.222734,38.9504271 L35.222734,38.9504273 C39.7736515,39.0734166 43.5626017,35.4838715 43.685591,30.9329539 C43.6974182,30.4953159 43.6743621,30.057431 43.6166414,29.6234549 C43.0214006,25.1481068 42.5931145,21.4997219 42.3317831,18.6783002 C41.8935429,13.9469113 41.5709584,7.72081119 41.3640298,-7.10542736e-15 L5.32907052e-15,1.19357641 Z"/>
    <path id="c" d="M5.32907052e-15,1.19357641 L0.508436883,41.0633591 C14.1905989,39.8164473 23.9186455,39.1143009 29.6925767,38.9569199 C31.6078242,38.9047157 33.45121,38.9025514 35.222734,38.9504271 L35.222734,38.9504273 C39.7736515,39.0734166 43.5626017,35.4838715 43.685591,30.9329539 C43.6974182,30.4953159 43.6743621,30.057431 43.6166414,29.6234549 C43.0214006,25.1481068 42.5931145,21.4997219 42.3317831,18.6783002 C41.8935429,13.9469113 41.5709584,7.72081119 41.3640298,-7.10542736e-15 L5.32907052e-15,1.19357641 Z"/>
    <path id="e" d="M5.32907052e-15,1.19357641 L0.508436883,41.0633591 C14.1905989,39.8164473 23.9186455,39.1143009 29.6925767,38.9569199 C31.6078242,38.9047157 33.45121,38.9025514 35.222734,38.9504271 L35.222734,38.9504273 C39.7736515,39.0734166 43.5626017,35.4838715 43.685591,30.9329539 C43.6974182,30.4953159 43.6743621,30.057431 43.6166414,29.6234549 C43.0214006,25.1481068 42.5931145,21.4997219 42.3317831,18.6783002 C41.8935429,13.9469113 41.5709584,7.72081119 41.3640298,-7.10542736e-15 L5.32907052e-15,1.19357641 Z"/>
    <path id="g" d="M5.32907052e-15,1.19357641 L0.508436883,41.0633591 C14.1905989,39.8164473 23.9186455,39.1143009 29.6925767,38.9569199 C31.6078242,38.9047157 33.45121,38.9025514 35.222734,38.9504271 L35.222734,38.9504273 C39.7736515,39.0734166 43.5626017,35.4838715 43.685591,30.9329539 C43.6974182,30.4953159 43.6743621,30.057431 43.6166414,29.6234549 C43.0214006,25.1481068 42.5931145,21.4997219 42.3317831,18.6783002 C41.8935429,13.9469113 41.5709584,7.72081119 41.3640298,-7.10542736e-15 L5.32907052e-15,1.19357641 Z"/>
    <path id="i" d="M5.32907052e-15,1.19357641 L0.508436883,41.0633591 C14.1905989,39.8164473 23.9186455,39.1143009 29.6925767,38.9569199 C31.6078242,38.9047157 33.45121,38.9025514 35.222734,38.9504271 L35.222734,38.9504273 C39.7736515,39.0734166 43.5626017,35.4838715 43.685591,30.9329539 C43.6974182,30.4953159 43.6743621,30.057431 43.6166414,29.6234549 C43.0214006,25.1481068 42.5931145,21.4997219 42.3317831,18.6783002 C41.8935429,13.9469113 41.5709584,7.72081119 41.3640298,-7.10542736e-15 L5.32907052e-15,1.19357641 Z"/>
    <polygon id="l" points="2.276 14.98 53.994 7.188 68.764 49.485 19.899 70.3"/>
    <filter id="k" width="106%" height="109.5%" x="-3.8%" y="-2.4%" filterUnits="objectBoundingBox">
      <feOffset dx="-1" dy="3" in="SourceAlpha" result="shadowOffsetOuter1"/>
      <feColorMatrix values="0 0 0 0 1 0 0 0 0 0.670827577 0 0 0 0 0.626028963 0 0 0 1 0" in="shadowOffsetOuter1"/>
    </filter>
    <path id="m" d="M43.0274373,74.3562204 C43.0274373,74.5671308 40.6154212,74.7381075 37.6400485,74.7381075 C34.6646759,74.7381075 32.2526598,74.5671308 32.2526598,74.3562204 L32.2408195,74.3562204 L26.3834458,52.999481 C26.3781698,52.9898784 26.3755085,52.9802306 26.3755085,52.9705406 C26.3755085,52.5487197 31.4188148,52.2067663 37.6400485,52.2067663 C43.8612822,52.2067663 48.9045886,52.5487197 48.9045886,52.9705406 C48.9045886,52.9802306 48.9019272,52.9898784 48.8966513,52.999481 L43.0392776,74.3562204 L43.0274373,74.3562204 Z"/>
  </defs>
  <g fill="none" fill-rule="evenodd">
    <path fill="#EEF5FF" d="M50.1472719,175.271387 C53.3323743,164.02423 77.8107128,136.009007 84.0849765,127.296459 C104.8011,98.5297001 70.3810619,80.7060706 104.8011,51.518027 C139.221138,22.3299834 242.228204,29.3655505 293.609181,29.4976895 C358.114344,29.6635805 373.729175,-2.5477965 450.438063,40.7650213 C492.463391,64.4941541 527.369392,104.596528 520.421418,148.628344 C514.254537,187.710092 476.328496,192.38847 490.167148,234.771854 C506.676056,285.333382 483.74451,325.813632 409.443483,336.969727 C363.47301,343.872067 269.358506,349.075672 179.462136,344.231683 C172.419976,343.852223 102.949376,323.296129 69.9373335,275.702458 C42.7508882,236.507588 42.8708138,200.965842 50.1472719,175.271387 Z"/>
    <path fill="#519CFF" d="M303.07867,40.1205086 L405.055857,95.7103383 C413.38038,99.8657994 419.048027,108.116616 419.048027,117.616347 L419.048027,122.123465 L419.048027,230.556507 C419.048027,240.279222 413.110631,248.687274 404.480273,252.74841 L303.845036,307.878087 C299.80705,310.275884 296.682361,310.484298 291.562951,310.492873 L291.562951,279.941483 C295.546404,279.930055 297.607793,280.033164 300.752063,278.172647 L379.0041,235.294977 C385.726148,232.139801 390.339717,225.60084 390.339717,218.041591 L390.339717,133.712307 L390.339717,130.208551 C390.339717,122.82069 385.932141,116.404618 379.464632,113.166609 L300.152368,69.9460312 C297.153411,68.3111588 293.672723,67.3738319 289.958857,67.3738319 C285.996601,67.3738319 282.300859,68.4398649 279.147366,70.2489634 L200.253141,113.229439 C193.849274,116.481873 189.493188,122.863646 189.493188,130.208551 L189.493188,211.405451 L189.493188,218.041591 L189.493188,260.510576 L175.092042,252.614094 C166.604035,248.510083 160.78784,240.17919 160.78784,230.556507 L160.78784,117.616347 C160.78784,108.173836 166.388964,99.9687002 174.619487,95.7874338 C174.619487,95.7874338 276.075752,40.5348366 276.093875,40.563527 C280.1228,38.1942442 284.875694,36.8195088 289.970993,36.8195088 C294.74816,36.8195088 299.21933,38.028513 303.07867,40.1205086 Z M330.9544,159.932249 L330.9544,158.430723 C330.9544,155.264537 329.086669,152.515798 326.346511,151.128689 L326.349425,151.128689 L292.739182,132.603505 L292.739182,132.606389 C291.464943,131.905623 289.989958,131.505323 288.416059,131.505323 C286.737255,131.505323 285.169346,131.960108 283.84411,132.752215 C283.835206,132.740837 283.832131,132.735068 283.832131,132.735068 L250.401764,151.157373 C247.685598,152.550251 245.841844,155.284408 245.841844,158.430723 L245.841844,196.067279 C245.841844,199.276251 247.757559,202.053515 250.557665,203.420753 L250.557665,203.423477 L283.46043,221.642635 C284.857545,222.566467 286.551405,223.107032 288.377044,223.107032 C290.07398,223.107032 291.653869,222.640822 292.990922,221.837129 L292.990922,221.839981 L326.154509,203.466424 L326.154509,203.463539 C329.002648,202.110723 330.9544,199.310705 330.9544,196.067279 L330.9544,159.932249 Z M353.614371,132.750452 C358.214003,135.058989 361.351602,139.647379 361.351602,144.92724 L361.351602,147.429998 L361.351602,207.699543 C361.351602,213.102154 358.069273,217.773552 353.291885,220.027717 C353.291885,220.030585 353.294799,220.033438 353.294799,220.033438 L297.626656,250.67248 L297.62358,250.67248 C295.381073,252.012444 292.72866,252.7867 289.883273,252.7867 C286.817877,252.7867 283.975566,251.883877 281.630582,250.349644 L247.236174,231.424512 L247.236174,291.808346 L218.484265,277.003102 L218.484265,144.92724 C218.484265,139.675903 221.5828,135.116038 226.134156,132.793239 L282.251432,102.074281 C282.251432,102.074281 282.260498,102.085658 282.27264,102.102805 C284.497015,100.785724 287.128382,100.017173 289.949648,100.017173 C292.587005,100.017173 295.061663,100.691498 297.195541,101.857144 L297.195541,101.85426 L353.614371,132.747568 L353.614371,132.750452 Z"/>
    <g transform="translate(176.723 109.909)">
      <path fill="#8EA6BB" d="M3.29693856,4.49084586 L5.43892373,43.1464149 C18.0320536,42.7089789 27.2155841,42.4115704 32.9895152,42.2541893 C34.819263,42.2043156 36.5834219,42.2001138 38.2819918,42.241584 L38.2819917,42.241586 C42.8332157,42.352703 46.6127898,38.7532853 46.7239069,34.2020614 C46.7365521,33.6841286 46.7003409,33.1661572 46.6157541,32.6550219 L41.211732,-5.32907052e-15 L3.29693856,4.49084586 Z" style="mix-blend-mode:multiply"/>
      <mask id="b" fill="white">
        <use xlink:href="#a"/>
      </mask>
      <use fill="#FFD9D2" xlink:href="#a"/>
      <path fill="#FDA190" d="M32.2511924,28.5924973 L44.5086705,29.2008945 L44.5086705,39.5672334 L36.2663241,39.5672334 C35.9690823,37.2288408 35.5790258,35.3997182 35.0961547,34.0798653 C34.6132836,32.7600125 33.6649628,30.9308898 32.2511924,28.5924973 Z" mask="url(#b)"/>
      <rect width="24.727" height="3.297" x="8.242" y="9.892" fill="#FF6345" mask="url(#b)"/>
      <rect width="18.133" height="3.297" x="8.242" y="19.784" fill="#FF6345" mask="url(#b)"/>
      <rect width="9.891" height="9.892" x="36.266" y="31.324" fill="#FFFCDB" mask="url(#b)"/>
    </g>
    <g transform="translate(269.587 101.666)">
      <path fill="#8EA6BB" d="M3.29693856,4.49084586 L5.43892373,43.1464149 C18.0320536,42.7089789 27.2155841,42.4115704 32.9895152,42.2541893 C34.819263,42.2043156 36.5834219,42.2001138 38.2819918,42.241584 L38.2819917,42.241586 C42.8332157,42.352703 46.6127898,38.7532853 46.7239069,34.2020614 C46.7365521,33.6841286 46.7003409,33.1661572 46.6157541,32.6550219 L41.211732,-5.32907052e-15 L3.29693856,4.49084586 Z" style="mix-blend-mode:multiply"/>
      <mask id="d" fill="white">
        <use xlink:href="#c"/>
      </mask>
      <use fill="#FFF0BB" xlink:href="#c"/>
      <path fill="#FFC500" d="M32.2511924,28.5924973 L44.5086705,29.2008945 L44.5086705,39.5672334 L36.2663241,39.5672334 C35.9690823,37.2288408 35.5790258,35.3997182 35.0961547,34.0798653 C34.6132836,32.7600125 33.6649628,30.9308898 32.2511924,28.5924973 Z" mask="url(#d)"/>
      <rect width="24.727" height="3.297" x="8.242" y="9.892" fill="#FF9A00" mask="url(#d)"/>
      <rect width="18.133" height="3.297" x="8.242" y="19.784" fill="#FF9A00" mask="url(#d)"/>
      <rect width="9.891" height="9.892" x="36.266" y="31.324" fill="#FFFCDB" mask="url(#d)"/>
    </g>
    <ellipse cx="270" cy="342.222" fill="#D4E4FA" rx="270" ry="17.778"/>
    <g transform="translate(355.307 104.963)">
      <path fill="#8EA6BB" d="M3.29693856,4.49084586 L5.43892373,43.1464149 C18.0320536,42.7089789 27.2155841,42.4115704 32.9895152,42.2541893 C34.819263,42.2043156 36.5834219,42.2001138 38.2819918,42.241584 L38.2819917,42.241586 C42.8332157,42.352703 46.6127898,38.7532853 46.7239069,34.2020614 C46.7365521,33.6841286 46.7003409,33.1661572 46.6157541,32.6550219 L41.211732,-5.32907052e-15 L3.29693856,4.49084586 Z" style="mix-blend-mode:multiply"/>
      <mask id="f" fill="white">
        <use xlink:href="#e"/>
      </mask>
      <use fill="#FFF0BB" xlink:href="#e"/>
      <path fill="#50DAA2" d="M32.2511924,28.5924973 L44.5086705,29.2008945 L44.5086705,39.5672334 L36.2663241,39.5672334 C35.9690823,37.2288408 35.5790258,35.3997182 35.0961547,34.0798653 C34.6132836,32.7600125 33.6649628,30.9308898 32.2511924,28.5924973 Z" mask="url(#f)"/>
      <rect width="24.727" height="3.297" x="8.242" y="9.892" fill="#FF9A00" mask="url(#f)"/>
      <rect width="18.133" height="3.297" x="8.242" y="19.784" fill="#FF9A00" mask="url(#f)"/>
      <rect width="9.891" height="9.892" x="36.266" y="31.324" fill="#FFFCDB" mask="url(#f)"/>
    </g>
    <g transform="translate(269.587 165.413)">
      <path fill="#8EA6BB" d="M3.29693856,4.49084586 L5.43892373,43.1464149 C18.0320536,42.7089789 27.2155841,42.4115704 32.9895152,42.2541893 C34.819263,42.2043156 36.5834219,42.2001138 38.2819918,42.241584 L38.2819917,42.241586 C42.8332157,42.352703 46.6127898,38.7532853 46.7239069,34.2020614 C46.7365521,33.6841286 46.7003409,33.1661572 46.6157541,32.6550219 L41.211732,-5.32907052e-15 L3.29693856,4.49084586 Z" style="mix-blend-mode:multiply"/>
      <mask id="h" fill="white">
        <use xlink:href="#g"/>
      </mask>
      <use fill="#87FFCE" xlink:href="#g"/>
      <path fill="#50DAA2" d="M32.2511924,28.5924973 L44.5086705,29.2008945 L44.5086705,39.5672334 L36.2663241,39.5672334 C35.9690823,37.2288408 35.5790258,35.3997182 35.0961547,34.0798653 C34.6132836,32.7600125 33.6649628,30.9308898 32.2511924,28.5924973 Z" mask="url(#h)"/>
      <rect width="24.727" height="3.297" x="8.242" y="9.892" fill="#2DB47D" mask="url(#h)"/>
      <rect width="18.133" height="3.297" x="8.242" y="19.784" fill="#2DB47D" mask="url(#h)"/>
      <rect width="9.891" height="9.892" x="36.266" y="31.324" fill="#FFFCDB" mask="url(#h)"/>
    </g>
    <g transform="translate(176.723 185.746)">
      <path fill="#8EA6BB" d="M3.29693856,4.49084586 L5.43892373,43.1464149 C18.0320536,42.7089789 27.2155841,42.4115704 32.9895152,42.2541893 C34.819263,42.2043156 36.5834219,42.2001138 38.2819918,42.241584 L38.2819917,42.241586 C42.8332157,42.352703 46.6127898,38.7532853 46.7239069,34.2020614 C46.7365521,33.6841286 46.7003409,33.1661572 46.6157541,32.6550219 L41.211732,-5.32907052e-15 L3.29693856,4.49084586 Z" style="mix-blend-mode:multiply"/>
      <mask id="j" fill="white">
        <use xlink:href="#i"/>
      </mask>
      <use fill="#FFF0BB" xlink:href="#i"/>
      <path fill="#FFC500" d="M32.2511924,28.5924973 L44.5086705,29.2008945 L44.5086705,39.5672334 L36.2663241,39.5672334 C35.9690823,37.2288408 35.5790258,35.3997182 35.0961547,34.0798653 C34.6132836,32.7600125 33.6649628,30.9308898 32.2511924,28.5924973 Z" mask="url(#j)"/>
      <rect width="24.727" height="3.297" x="8.242" y="9.892" fill="#FF9A00" mask="url(#j)"/>
      <rect width="18.133" height="3.297" x="8.242" y="19.784" fill="#FF9A00" mask="url(#j)"/>
      <rect width="9.891" height="9.892" x="36.266" y="31.324" fill="#FFFCDB" mask="url(#j)"/>
    </g>
    <g transform="translate(167.407 56.847)">
      <path fill="#DBEAFF" d="M74.9075665,36.3511367 L166.624292,34.0569913 L166.290882,-2.84217094e-14 L172.045247,3.13841252 L172.617501,33.9049311 L251.427608,31.6772748 L251.6409,40.4747101 L172.773021,41.8015107 L176.006498,233.622861 L168.586796,233.341575 L166.713739,41.8930165 L74.9777026,43.2588113 L76.5317934,233.170546 L69.1120913,229.368291 L68.9017158,43.3505695 L0,44.372645 C2.00720848,42.4820853 3.61153778,41.1087037 4.81298791,40.2525003 C6.01443803,39.3962969 7.28588021,38.7202839 8.62731445,38.2244613 L68.8922995,36.5037565 L68.8511809,5.43384099 L74.6055458,2.27677492 L74.9075665,36.3511367 Z"/>
      <rect width="47.256" height="10.441" x="7.118" y="9.099" fill="#769BCB"/>
      <rect width="47.256" height="10.441" x="97.784" y="9.099" fill="#769BCB"/>
      <rect width="47.256" height="10.441" x="188.45" y="9.099" fill="#769BCB"/>
    </g>
    <g transform="matrix(-1 0 0 1 167.407 92.593)">
      <polygon fill="#FFFFFF" points="48.009 85.668 69.731 86.254 64.28 37.972 51.816 39.645"/>
      <path fill="#C3DDFF" d="M64.6330577,86.2238023 C63.2914072,76.3225688 62.559347,68.6443113 62.4368771,63.1890296 C62.3144072,57.733748 62.8019675,49.6820607 63.899558,39.0339677 L68.4486712,86.2542012 L64.6330577,86.2238023 Z M53.8250396,86.2238023 L49.5831445,85.6679365 L53.8250396,39.7057631 C53.2931165,54.3999692 53.0271549,64.844963 53.0271549,71.0407446 C53.0271549,77.2365262 53.2931165,82.2975454 53.8250396,86.2238023 Z" opacity=".6"/>
      <path fill="#C29174" d="M15.2716247,109.729014 L10.7882692,112.061161 C8.60600332,112.491173 6.87902965,113.135532 5.60734818,113.994238 C4.33566671,114.852944 2.56291057,116.571785 0.289079749,119.150761 C-0.0196360661,119.480122 -0.081087619,119.772977 0.10472509,120.029325 C0.2905378,120.285673 0.627024921,120.322352 1.11418645,120.139363 L3.61256281,118.587772 L1.39890502,121.657299 C1.16751211,121.9557 1.12130648,122.198359 1.26028812,122.385276 C1.39926975,122.572194 1.70582615,122.572194 2.17995729,122.385276 C2.01480486,122.688483 2.04856453,122.974552 2.2812363,123.243484 C2.51390808,123.512415 2.83591836,123.554405 3.24726716,123.369451 L6.43313424,119.751248 L5.39266001,123.369451 C5.42647563,123.628177 5.56926469,123.757541 5.8210272,123.757541 C6.0727897,123.757541 6.24857763,123.628177 6.34839098,123.369451 C9.68549775,119.157883 11.4961539,117.167719 11.7803595,117.398957 C12.064565,117.630196 11.7338683,118.862932 10.7882692,121.097168 C10.717356,121.446296 10.8081306,121.695417 11.0605929,121.844531 C11.3130552,121.993645 11.5529774,121.931234 11.7803595,121.657299 C13.3873521,120.193644 14.4369632,118.774197 14.9291929,117.398957 C15.4214226,116.023717 16.5388788,114.244452 18.2815616,112.061161 L15.2716247,109.729014 Z"/>
      <path fill="#FFC500" d="M113.053527,65.0765403 L107.395895,62.1700441 C100.470031,66.6088349 95.8921814,68.8282303 93.6623463,68.8282303 C90.3175937,68.8282303 84.2044601,50.1725457 79.4182516,46.6335772 C77.633326,45.3137861 75.6451808,43.3195965 72.5733366,41.6031607 C70.9603303,40.7018709 67.9849877,39.277535 63.6473088,37.3301529 C64.2778851,53.6715388 64.8602973,65.1071726 65.3945453,71.6370543 C67.7849549,100.853997 70.3990035,115.67583 71.4821747,116.310389 C72.9284733,117.15768 77.2307375,116.928879 84.3889673,115.623987 C82.5496016,107.640484 81.1941334,102.14208 80.3225625,99.128775 C77.5215259,89.4446778 75.3500503,84.2423648 75.3500503,83.4853481 C75.3500503,82.7543886 74.5508994,80.1982689 74.399326,75.7063287 C74.346879,74.1520382 74.4889137,71.2955765 74.8254302,67.1369438 C80.7270071,76.3099388 86.7000506,80.8964363 92.7445606,80.8964363 C98.7890706,80.8964363 105.558726,75.6231376 113.053527,65.0765403 Z"/>
      <path fill="#FFFFFF" d="M86.0080431,68.5172373 L92.2918062,36.5203128 C96.3594243,36.9655968 99.653272,37.2355435 102.173349,37.3301529 C104.693427,37.4247624 108.590049,37.4247624 113.863215,37.3301529 L107.708211,69.720163 C102.57348,69.8596115 98.7483247,69.8596115 96.2327453,69.720163 C93.717166,69.5807146 90.3089319,69.1797394 86.0080431,68.5172373 Z"/>
      <path fill="#C3DDFF" d="M101.977815,69.8247494 C99.4583205,67.7911953 98.9556594,63.6643884 100.469831,57.4443288 C101.984003,51.2242692 105.847088,47.4097614 112.059085,46.0008054 C109.477107,61.8834347 108.000865,69.8247494 107.630357,69.8247494 C107.259849,69.8247494 105.375668,69.8247494 101.977815,69.8247494 Z"/>
      <path fill="#C29174" d="M102.619892 52.483806C102.262543 52.0486053 102.173205 51.6817504 102.35188 51.3832414 102.530555 51.0847324 102.896275 50.9354779 103.44904 50.9354779 106.089376 52.5142566 107.530503 53.1670059 107.772422 52.893726 108.014341 52.620446 106.492247 50.9039416 103.20614 47.744213 102.989744 47.3154479 103.009672 46.9575369 103.265924 46.6704801 103.522176 46.3834232 103.870344 46.3834232 104.31043 46.6704801 104.12028 46.1174298 104.15984 45.7478531 104.429111 45.56175 104.698383 45.375647 105.06903 45.3990484 105.541054 45.6319541 108.65479 48.5614686 110.324402 49.9040354 110.54989 49.6596544 110.775377 49.4152734 109.521761 47.8468862 106.789039 44.9544927 106.568307 44.5892667 106.590819 44.3081285 106.856575 44.1110781 107.122331 43.9140278 107.427613 43.9140278 107.772422 44.1110781 109.258798 45.2883702 110.257282 46.1156651 110.767876 46.5929629 112.08563 47.8247863 112.712148 48.7289746 113.053527 49.0049922 113.429331 49.3088437 114.457962 51.8016412 113.989159 56.6420457 113.85278 58.0501656 113.209422 60.6207 112.059085 64.353649L108.75627 62.9072193C108.854794 61.2182476 108.854794 59.9569298 108.75627 59.1232661 108.657746 58.2896025 108.393029 57.311017 107.962119 56.1875097 106.945968 55.1610722 106.138947 54.4405974 105.541054 54.0260853 104.943161 53.6115732 103.969441 53.0974801 102.619892 52.483806zM60.6290403 18.0284128C60.8567287 17.9833972 61.0921097 17.959797 61.3329998 17.959797 63.3273614 17.959797 64.9441109 19.5774493 64.9441109 21.5729244 64.9441109 23.4674238 63.4868442 25.0213703 61.6326966 25.173786L63.250705 36.6929423C63.4043557 37.7868338 63.034222 41.6605274 58.9294672 42.0006806 54.8247123 42.3408338 53.4236421 39.1563403 53.2746712 38.0957653L52.979624 35.9952232 51.9526793 36.1396314C48.306613 36.6523387 44.9179688 33.9858404 44.3839308 30.1838406L42.7772872 18.7455946C42.2432491 14.9435948 44.7660465 11.4458336 48.4121129 10.9331263L52.8133043 10.3142338C56.4593707 9.80152648 59.8480148 12.4680249 60.3820529 16.2700246L60.6290403 18.0284128zM46.9974119 232.216634L43.7453625 237.168808C49.7570729 240.116117 52.7629281 241.589771 52.7629281 241.589771 52.7629281 241.589771 53.4879898 238.989918 54.938113 233.79021L46.9974119 232.216634z"/>
      <path fill="#141771" d="M44.2117532,236.264025 C46.1772345,236.646581 47.543988,237.56531 48.3120135,239.020213 C49.080039,240.475116 50.9153757,240.903375 53.8180236,240.304992 C53.7476268,241.302012 53.6068325,242.035 53.3956409,242.503956 C53.1844492,242.972912 52.7784063,243.454189 52.1775123,243.947785 L28.0188496,243.947785 C27.4203827,243.797772 27.1211493,243.509288 27.1211493,243.082334 C27.1211493,242.65538 27.3158703,242.323752 27.7053123,242.087449 C32.8286702,240.743387 36.5740475,239.653751 38.9414443,238.818541 C41.3088411,237.98333 43.0656107,237.131825 44.2117532,236.264025 Z"/>
      <path fill="#C29174" d="M88.7384513,234.073831 L91.0660977,240.882604 C93.435139,241.509568 95.4777542,241.369533 97.1939434,240.462497 C98.9101325,239.555461 99.9981295,238.322356 100.457934,236.763182 L95.6270984,231.816019 L88.7384513,234.073831 Z"/>
      <path fill="#141771" d="M89.9470547,239.181046 C90.0210948,240.411408 90.1580129,241.307627 90.357809,241.869703 C90.5576052,242.43178 91.0004443,243.166562 91.6863264,244.07405 L110.274375,244.07405 C111.203141,244.142181 111.801095,243.89021 112.068237,243.318135 C112.335379,242.746061 112.219659,242.37099 111.721075,242.192924 C108.836453,241.027004 106.753482,240.103186 105.472161,239.421469 C104.19084,238.739753 102.519432,237.666083 100.457934,236.200461 C98.7902186,236.964228 97.4146127,238.037897 96.3311168,239.421469 C95.2476209,240.805041 93.1196002,240.7249 89.9470547,239.181046 Z"/>
      <path fill="#FFC500" d="M13.492288,108.534791 L19.8095623,113.18691 C25.9870751,107.379676 30.5425583,102.388465 33.4760119,98.2132764 C36.4094656,94.0380878 39.5279552,88.106923 42.8314807,80.4197822 L37.6868048,115.704229 C39.3280688,116.279365 40.4875258,116.648203 41.1651757,116.810743 C43.5072211,117.3725 45.0511901,117.325157 45.6957023,116.810743 C46.3099161,116.320511 49.2867722,101.663574 50.8866746,79.1050294 C51.4250416,71.5140809 52.4044966,58.2666197 53.8250396,39.3626457 C52.832966,39.3950493 52.1633586,39.4890719 51.8162174,39.6447134 C46.3634044,42.0894933 42.2446005,46.1825857 38.6163476,51.1564904 C32.6542527,59.3298159 29.8272851,78.7836695 27.4994494,84.1501625 C25.947559,87.7278244 21.2785052,95.8560341 13.492288,108.534791 Z"/>
      <path fill="#0D58FF" d="M38.7367903,114.933762 C40.8461597,140.045751 42.1940571,158.616347 42.7804824,170.645551 C43.3669078,182.674755 44.1913194,203.503073 45.2537174,233.130507 L55.4027336,234.554189 C59.0860849,215.647515 60.9277605,199.582899 60.9277605,186.360339 C60.9277605,173.137779 60.9277605,157.908958 60.9277605,140.673875 L61.8039199,127.549308 L57.5099384,86.2542012 L48.0090704,85.6679365 L38.7367903,114.933762 Z"/>
      <path fill="#0A43B9" d="M38.7367903,114.933762 L39.6172987,125.579668 C45.1443851,123.506193 48.6954039,125.252758 50.2703551,130.819362 C52.8054024,139.77939 51.0131386,141.575646 51.8162174,149.558118 C53.0271549,161.594638 60.9277605,174.343987 60.9277605,170.319125 C60.9277605,164.241749 60.9277605,154.359999 60.9277605,140.673875 L61.8039199,127.549308 L57.5099384,86.2542012 L48.0090704,85.6679365 L38.7367903,114.933762 Z"/>
      <path fill="#0D58FF" d="M53.6948343,85.6679365 C52.8045951,91.8621768 52.8045951,98.6012046 53.6948343,105.88502 C54.3425165,111.184267 65.2204419,145.394915 74.4746375,186.75842 C76.9073901,197.632101 81.2184916,213.564024 87.4079419,234.554189 L98.1031097,232.601421 C91.7481908,198.404779 87.7165019,175.183873 86.0080431,162.938704 C84.2995843,150.693535 83.3944484,134.824581 83.2926352,115.331842 L66.8162174,85.6679365 L53.6948343,85.6679365 Z"/>
      <path fill="#FF9A00" d="M48.6632647 41.3443044L46.6097015 50.0783037C43.7104684 54.7758854 42.1774489 58.2020708 42.0106429 60.3568599 41.843837 62.5116491 42.9248226 64.92481 45.2535999 67.5963428L42.8314807 80.4197822C38.3505867 76.9365435 36.8621701 71.8308656 38.3662307 65.1027485 39.8702913 58.3746313 43.302636 50.45515 48.6632647 41.3443044zM71.2336408 59.5552817C71.9784473 61.5743947 72.5502842 62.9767986 72.9491515 63.7624932 73.3480188 64.5481878 73.973445 65.6730047 74.8254302 67.1369438 74.7538452 68.2316167 74.6793545 69.6057096 74.6019581 71.2592226 74.5245617 72.9127356 74.5245617 75.482312 74.6019581 78.9679519 72.78588 75.5063135 71.7074566 72.6719722 71.3666877 70.4649278 71.0259189 68.2578834 70.9815699 64.6213347 71.2336408 59.5552817z"/>
      <path fill="#0A43B9" d="M53.6834188,86.2542012 L53.3725343,88.8554656 L64.7043103,89.3273428 C65.3841777,100.2007 65.999191,107.37267 66.5493501,110.843253 C67.6069753,117.515098 69.2274885,120.878971 70.4491532,121.282568 C71.8506606,121.745579 74.6546279,121.722008 77.8696707,120.162124 C79.052439,119.588264 80.9374848,118.244519 83.5248082,116.130888 L67.2724562,86.2542012 L53.6834188,86.2542012 Z"/>
      <path fill="#172A51" d="M43.4789509 22.8772188C41.3278952 24.4164408 40.2523673 23.981676 40.2523673 21.5729244 40.2523673 19.1641728 40.7716868 17.3495257 41.8103258 16.1289829 38.6547804 17.5405816 37.0770076 17.5405816 37.0770076 16.1289829 37.0770076 15.1799152 37.270553 11.4614813 40.2523673 7.89649737 42.301391 5.44673499 44.8869587 4.27017259 48.0090704 4.36681016 53.2306147-1.45560339 59.3817273-1.45560339 66.4624082 4.36681016 77.0834297 13.1004305 72.09082 29.9805979 74.3089668 32.6778215 75.2437208 33.8144642 81.5713565 39.3844104 83.5248082 43.7879189 84.2827248 45.4964291 83.9642738 47.6791541 82.5694552 50.3360938L63.3328568 37.1101556 61.5651037 25.1860518C64.2769238 23.4172412 65.2846495 21.809854 64.588281 20.3638902 63.8919124 18.9179263 62.8068187 18.1165619 61.3329998 17.959797 60.4124181 19.4788293 59.9155725 20.1119878 59.842463 19.8592728 59.575007 18.9347675 58.2591956 18.6947141 57.7218887 16.6323881 57.5416724 15.9406706 57.5416724 14.3413046 57.7218887 11.8342901 54.4324329 13.7553648 51.8515498 14.7159022 49.9792394 14.7159022 48.0402146 14.7159022 46.0660282 14.2169816 44.0566802 13.2191406 43.235909 14.3561807 42.7856718 15.5909138 42.7059684 16.9233398 42.626265 18.2557658 42.8839258 20.2403922 43.4789509 22.8772188zM45.8256675 33.6077406C46.9847468 34.743705 48.0205996 35.4770295 48.9332259 35.8077141 49.8458522 36.1383988 51.2125943 36.1945964 53.0334522 35.9763071L53.8250396 39.3626457 51.8162174 39.6447134C49.8009067 40.6883711 48.5318577 41.3977324 48.0090704 41.7727972 42.1665264 45.9644306 39.876726 49.6516928 39.876726 49.6516928 39.876726 49.6516928 40.3467861 46.1327831 42.7059684 39.6447134 43.1344909 38.4662186 44.1743906 36.4538943 45.8256675 33.6077406z"/>
      <path fill="#FF6345" d="M61.3329998,17.7126671 C61.7002918,12.7382927 60.7187354,9.11206266 58.3883306,6.83397692 C56.0579257,4.55589118 52.5981723,3.73350226 48.0090704,4.36681016 L49.1598605,3.2281482 C54.4549662,2.39665398 58.2353588,3.4393548 60.5010385,6.35625066 C62.7667182,9.27314652 63.672855,13.2327432 63.219449,18.2350407 C62.9233684,17.95322 62.6553816,17.7790955 62.4154887,17.7126671 C62.1755958,17.6462388 61.8147662,17.6462388 61.3329998,17.7126671 Z"/>
      <path stroke="#979797" stroke-width=".556"/>
    </g>
    <g transform="translate(339.26 148.377)">
      <path fill="#C29174" d="M117.008022,23.9264071 L122.730851,31.501336 L116.119592,36.4704705 L110.868336,29.5197311 L106.050872,33.1406188 C105.218681,33.7661075 104.037243,33.6000677 103.409697,32.7694271 L89.0797609,13.8018413 C88.4511158,12.9697454 88.6160452,11.7855809 89.448141,11.1569357 C89.4493836,11.155997 89.4506273,11.1550598 89.4518721,11.1541241 L99.6554712,3.48492533 C100.487662,2.8594367 101.6691,3.0254765 102.296646,3.85611701 L116.626582,22.8237029 C116.876587,23.1546173 117.001083,23.5412135 117.008022,23.9264071 Z"/>
      <g transform="rotate(4 35.52 38.744)">
        <use fill="black" filter="url(#k)" xlink:href="#l"/>
        <use fill="#FFE4DE" xlink:href="#l"/>
      </g>
      <path fill="#C29174" d="M42.2906933 63.7416204C38.0675687 60.688038 34.8820823 59.6701772 32.734234 60.688038 29.5124615 62.2148292 22.9391447 65.2415194 26.5872336 66.8652738 29.0192929 67.9477767 34.5378117 68.1395567 43.1427899 67.4406138L42.2906933 63.7416204zM66.0007179 56.2545823C62.5317228 53.201 59.9150732 52.1831392 58.1507692 53.201 55.5043132 54.7277911 50.104803 57.7544814 53.1014475 59.3782357 55.0992105 60.4607386 59.6322794 60.6525186 66.7006544 59.9535758L66.0007179 56.2545823z"/>
      <path fill="#000C73" d="M61.1313289,138.729209 C61.1313289,138.729209 64.8302647,148.39403 72.6832849,150.943696 C80.5363051,153.493362 82.0975647,153.339499 83.4525112,150.943696 C84.3558089,149.346494 82.7721506,146.699104 78.7015364,143.001524 C68.606371,137.378223 62.9753721,135.057793 61.8085396,136.040233 C60.6573846,137.009473 61.1313289,138.729209 61.1313289,138.729209 Z"/>
      <path fill="#FFDCDB" d="M77.4030515,141.791217 L78.9392077,146.13933 C79.20563,146.893442 80.0162056,147.306569 80.7829466,147.079029 L80.7829466,147.079029 C81.5443829,146.853063 81.9871605,146.06159 81.7812867,145.294478 L80.5888954,140.851472 L77.4030515,141.791217 Z"/>
      <g transform="translate(105.733 92.434)">
        <path fill="#FFDCDB" d="M59.1779601,88.5312652 L66.0511907,92.1098806 C67.606554,92.9196959 69.5183807,92.5031073 70.5958178,91.1196029 L70.5958178,91.1196029 C71.4538207,90.0178673 71.2562363,88.4291855 70.1545008,87.5711826 C70.0354101,87.4784379 69.9082537,87.3965438 69.7745547,87.3264813 L63.921629,84.259363 L59.1779601,88.5312652 Z"/>
        <path fill="#0843F3" d="M0.472879977,19.9694615 C-1.2886875,32.8382643 1.87137438,44.6647311 9.95306561,55.4488617 C18.0347568,66.2329923 34.5261066,77.513296 59.427115,89.2897727 L64.843935,84.2644211 L27.9028141,51.1039882 C28.8611669,46.7272013 31.2147611,42.1618305 34.9635969,37.4078758 C40.5868506,30.2769438 50.0232737,31.1185381 51.7207577,20.8110558 C52.8524137,13.9394009 52.1170093,7.00238231 49.5145446,0 L0.472879977,19.9694615 Z"/>
        <path fill="#0A3A9C" d="M29.7125606,30.273684 C23.6024762,32.3693251 15.7899564,33.9981181 11.1889417,36.887183 C8.12159852,38.8132262 5.91541367,42.0216035 4.57038714,46.5123148 C2.7763622,42.7512416 1.59869401,39.5428643 1.03738256,36.887183 C0.476071116,34.2315016 0.130276928,30.2320612 0,24.8888615 C19.8083737,28.4787432 29.7125606,30.273684 29.7125606,30.273684 Z"/>
        <path fill="#000C73" d="M72.5212197,85.0895087 C79.795001,86.7896862 72.0168404,101.287707 69.2799517,103.104166 C67.4553593,104.315138 60.9427706,103.828917 49.7421858,101.645502 C48.0533554,99.8776996 48.0533554,98.7000447 49.7421858,98.1125367 C51.4310161,97.5250287 55.0562429,96.8360693 60.6178663,96.0456584 C63.7042478,87.6081069 67.6720323,83.956057 72.5212197,85.0895087 Z"/>
      </g>
      <path fill="#0D58FF" d="M63.5241972,75.0932984 C58.9308675,77.3413222 54.061896,87.0123838 60.0123936,105.543903 C63.9793921,117.898248 69.988172,130.50584 78.0387335,143.366677 L81.4658456,142.429898 C80.1735552,131.795095 79.2686012,124.627044 78.7509836,120.925745 C78.2333661,117.224446 76.5477043,108.355925 73.6939982,94.3201824 C97.6839583,116.991257 117.785735,126.581699 133.999329,123.091509 C150.212923,119.601319 157.578862,110.010877 156.097147,94.3201824 L98.2461295,89.5990992 C78.1603945,78.4298828 66.586417,73.5946159 63.5241972,75.0932984 Z"/>
      <path fill="#0A3A9C" d="M84.6850397,82.5605703 L76.7781823,78.4324128 L62.1673198,76.1953534 C61.3393819,76.7329416 60.6963349,77.3462111 60.2381787,78.0351619 C59.7800225,78.7241127 59.2253237,79.9119494 58.5740823,81.5986719 C62.7200498,83.8985402 66.583623,85.0484744 70.1648018,85.0484744 C73.7459806,85.0484744 78.5860599,84.219173 84.6850397,82.5605703 Z"/>
      <path fill="#FFFFFF" d="M41.9855016,62.6103783 L41.9855016,68.425903 C61.8499073,78.0609882 77.3568835,81.0950921 88.5064304,77.5282145 C99.6559772,73.9613369 107.669835,70.0035981 112.548004,65.6549983 C111.548076,73.3495129 110.609588,79.0925709 109.732538,82.8841723 C108.855489,86.6757737 108.090996,89.6235371 107.439061,91.7274626 C107.439061,100.736169 114.542418,106.020547 128.749132,107.580594 C142.955846,109.140642 152.071851,105.338045 156.097147,96.1728041 C154.719078,76.1212813 151.852736,62.0569674 147.49812,53.9798623 C140.966198,41.8642047 128.589979,30.8112596 123.602839,30.8112596 C118.615699,30.8112596 117.655967,36.2286522 114.840502,37.9119804 C113.627304,38.6373346 107.285072,45.3868138 93.7615932,49.9896967 C88.8288413,51.6686197 79.2451156,53.4055929 65.0104161,55.2006166 L65.6634435,60.7522392 C73.0772264,61.5738383 79.1549251,61.8636752 83.8965396,61.6217497 C88.638154,61.3798243 93.6864156,60.5223216 99.0413245,59.0492415 C91.9589111,63.4530794 83.0846389,65.6549983 72.4185078,65.6549983 C61.7523768,65.6549983 51.6080414,64.640125 41.9855016,62.6103783 Z"/>
      <path fill="#193774" d="M118.953534,23.8944462 L104.757227,5.01802818 C101.490259,-0.714265298 96.4648355,-1.53538839 89.680956,2.5546589 C79.5051366,8.68972984 85.1083582,10.085835 83.35036,12.7359725 C82.1783612,14.5027308 79.7762232,14.5027308 76.1439459,12.7359725 C76.7278247,16.4324781 79.1299627,18.9647273 83.35036,20.3327199 C87.5707573,21.7007126 91.4373637,21.1366942 94.9501791,18.6406648 C97.430186,15.4031751 100.699202,15.0329673 104.757227,17.5300415 C108.815251,20.0271157 113.547354,22.1485839 118.953534,23.8944462 Z"/>
    </g>
    <g transform="translate(255.3)">
      <path fill="#FF6345" d="M4.43115187,24.1176572 C1.98511416,22.9935064 -0.019454114,18.032477 0.175069771,12.1164427 C0.4015336,5.22902233 5.43120863,2.00166541 9.70896289,1.05293118 C13.6092206,0.187919356 18.2250875,0.0279685662 21.9147298,3.04150764 C25.4971237,5.96745099 28.36725,12.4002252 30.3409771,13.4190391 C33.0333423,14.8088053 43.3969686,13.4190391 43.8294595,19.659377 C44.2619505,25.8997149 41.8406301,24.1176572 39.3872846,24.1176572 C37.760494,24.1176572 36.3379461,23.2400198 35.5640604,21.9307757 L35.1339357,22.7416676 L16.7778112,33.628655 L16.5507583,33.61995 C16.2811262,35.9699978 14.410043,37.7897165 12.1419449,37.7897165 C9.76586626,37.7897165 5.90805081,37.7897165 5.18140693,32.4737905 C6.8642293,27.9062953 6.61414427,25.1209176 4.43115187,24.1176572 Z"/>
      <path fill="#8EA6BB" d="M17.1770505,76.3867422 L15.6316115,64.3984909 C21.5584785,51.9006731 25.1604323,45.3546471 26.4374728,44.760413 C27.7145134,44.1661788 34.3339885,42.4872685 46.2958981,39.7236819 C42.8675834,36.6968986 38.5169942,35.4802317 33.2441305,36.0736813 C27.9712667,36.6671309 22.751114,39.5627081 17.5836723,44.760413 L8.88434991,64.3984909 L12.4378997,76.3867422 L17.1770505,76.3867422 Z" style="mix-blend-mode:multiply"/>
      <polygon fill="#8EA6BB" points="63.077 48.591 69.812 52.361 71.231 59.784 68.557 82.576 62.318 79.105" style="mix-blend-mode:multiply"/>
      <path fill="#0A3A9C" d="M20.203524,23.0056374 C33.6076541,17.2393578 46.7482267,19.9456422 54.0391684,28.6472935 C58.8997962,34.4483943 62.9988998,43.8969719 66.3364793,56.9930262 C65.723079,66.0207193 65.1195263,72.8145317 64.525821,77.3744633 C63.9321158,81.934395 62.7780072,88.6402378 61.0634951,97.4919919 L55.422998,96.3685479 C55.2611916,87.3705403 55.2611916,80.5691935 55.422998,75.9645075 C55.5848045,71.3598215 55.5848045,65.0359944 55.422998,56.9930262 C53.8980902,54.6716724 52.6736588,52.6550934 51.7497038,50.9432893 C50.8257489,49.2314853 49.5295679,46.5781455 47.8611608,42.98327 C46.9790044,39.091685 42.6561507,37.3605005 34.8925997,37.7897165 C27.1290488,38.2189325 22.2326902,40.4598107 20.203524,44.5123512 C17.8325665,48.9620801 16.1064993,52.2851692 15.0253227,54.4816187 C13.944146,56.6780682 12.4310855,59.9353839 10.4861412,64.2535657 C11.5906195,67.1531278 12.4697559,71.056775 13.1235506,75.9645075 C13.7773452,80.8722399 14.1568843,88.0480681 14.2621678,97.4919919 L8.77026582,99.6112019 C6.07696451,92.7921335 4.30707306,87.4746613 3.46059149,83.6587856 C2.61410991,79.8429098 1.85543941,73.7618134 1.18457999,65.4154964 C1.79513258,56.7215085 2.55380308,50.6960039 3.46059149,47.3389828 C7.22257741,33.4117357 13.640399,25.829007 20.203524,23.0056374 Z"/>
      <path fill="#FED9BF" d="M10.1763616,97.4420896 C9.57697224,99.8560789 9.18011561,101.687424 8.9857917,102.936124 C8.79146779,104.184824 8.87633193,105.409431 9.24038411,106.609945 C9.4926384,107.221489 9.88194627,107.711882 10.4083077,108.081124 C10.9346692,108.450365 11.7015208,108.878111 12.7088627,109.364361 C14.1578977,109.788934 15.214634,109.829727 15.8790717,109.486738 C16.5435094,109.143749 17.0064208,108.44618 17.2678059,107.394032 C15.6244725,104.843835 15.1615611,103.357866 15.8790717,102.936124 C16.1117198,102.799377 16.8919015,102.681798 18.2196167,102.583389 L14.7916385,99.3062011 L14.1492215,96.6390151 L10.1763616,97.4420896 Z"/>
      <path fill="#FED9BF" d="M53.1525801,96.4076619 C52.6558464,98.8418427 52.3268463,100.688483 52.1655799,101.947582 C52.0043134,103.206681 52.0738908,104.441377 52.3743121,105.651671 C52.5825819,106.26817 52.9042257,106.762463 53.3392433,107.134549 C53.7742609,107.506635 54.4080874,107.937613 55.2407228,108.427485 C56.4385792,108.854995 57.3122678,108.895707 57.8617888,108.549621 C58.4113098,108.203534 58.7943793,107.500016 59.0109975,106.439068 C58.1950866,105.216769 57.7229904,104.359618 57.5947089,103.867615 C57.3937792,103.096983 57.7924593,102.460548 57.8649349,101.944858 C57.8776111,101.854661 58.7156661,101.926453 60.3790998,102.160234 L56.9675898,98.2853589 L56.4377212,95.5963792 L53.1525801,96.4076619 Z" transform="scale(-1 1) rotate(-8 0 906.317)"/>
      <path fill="#FED9BF" d="M15.9918298,6.16291675 L15.9918298,24.4462364 C15.9918298,25.4255269 15.1774357,28.7805323 11.4784163,28.5724232 C7.77939682,28.364314 6.92979293,25.3957008 6.92979293,24.4462364 L6.92979293,22.5657567 L5.99693619,22.5657567 C2.68491979,22.5657567 -3.08898446e-12,19.8065249 -3.0908609e-12,16.40284 L-3.0908609e-12,6.16291675 C-3.09126651e-12,2.75923181 2.68491979,1.06643935e-12 5.99693619,1.0658141e-12 L9.99489365,1.0658141e-12 C13.30691,1.06518886e-12 15.9918298,2.75923181 15.9918298,6.16291675 Z" transform="rotate(-34 21.308 2.707)"/>
      <path fill="#FF6345" d="M18.6236359,14.010466 C14.6582788,7.68773559 10.7378339,6.28558652 6.86230134,9.80401884 C5.99867644,10.5880674 5.05053711,11.3963645 4.01788338,12.22891 C6.75077427,7.07711957 9.76571979,4.50122434 13.0627199,4.50122434 C17.3050915,4.50122434 20.2905679,6.04615748 22.0191491,9.13602376 C25.6965236,16.524811 27.4332279,20.1295438 27.229262,19.9502223 C26.9233131,19.6812401 25.1867657,19.5623111 22.8769413,17.0701831 C20.5671169,14.5780552 22.0191491,12.22891 20.3984903,11.3199714 C19.318051,10.7140124 18.7264329,11.6108439 18.6236359,14.010466 Z"/>
    </g>
    <polygon fill="#8EA6BB" points="160.788 214.858 160.788 223.87 181.887 232.921 181.431 226.353 177.484 226.353 176.723 217.743" style="mix-blend-mode:multiply"/>
    <g transform="translate(308.148 267.407)">
      <g transform="translate(37.525)">
        <path fill="#50DAA2" d="M27.7443549,12.4224284 C27.299874,13.9276181 26.7057937,15.4130117 25.9621141,16.8786092 C25.4345417,17.918316 24.7583137,18.8577155 23.9779374,19.7086409 C21.0020456,15.7331181 19.1301661,13.9737226 18.3622989,14.4304545 C17.5778369,14.897057 18.8455874,17.2197375 22.1655503,21.3984961 C16.7353337,25.7769313 8.70567108,27.2820741 7.65030173,28.4593118 C7.06884609,29.1079108 4.89618549,33.5068247 3.54534959,38.4554867 C1.74331843,45.0570607 0.760815506,52.5747315 0.760815506,52.8717431 C0.760815506,53.2181811 0.547893441,53.4559654 0.122049311,53.5850961 C1.141337,45.9478889 1.90858186,40.748126 2.42378388,37.9858073 C3.31406769,33.2124418 4.78212146,29.8626918 4.78212146,27.8584781 C4.78212146,22.2425472 3.53298194,14.8852327 10.3458112,11.6516374 C14.8876974,9.49590731 20.8166335,5.63483729 28.1326197,0.068427396 C28.8836395,3.55692604 28.9321927,6.95246872 28.2782793,10.2550554 C25.1427636,7.82651677 23.3802758,6.95612663 22.9908158,7.64388501 C22.6161148,8.30558007 24.2006278,9.89842785 27.7443549,12.4224284 Z"/>
        <path fill="#2DB47D" d="M7.11534208,28.0053609 C6.77162508,28.1647937 6.52486886,28.3145325 6.39507716,28.4593118 C6.31357306,28.5502276 6.2215371,28.7163992 6.12052828,28.9485721 C5.64867123,29.3919346 5.15287167,29.8524913 4.63312959,30.3302421 C4.7324575,29.3518453 4.78212146,28.5279239 4.78212146,27.8584781 C4.78212146,22.2425472 3.53298194,14.8852327 10.3458112,11.6516374 C14.8876974,9.49590731 20.8166335,5.63483729 28.1326197,0.068427396 C28.3519429,1.08718693 28.5113571,2.09801883 28.6108623,3.1009231 C23.980802,4.61323132 21.6657718,6.39929055 21.6657718,8.45910078 C21.6657718,11.7491123 20.316363,11.0793253 15.8584004,13.7584734 C11.4004377,16.4376216 13.0950158,18.5369354 13.0950158,20.8506313 C13.0950158,21.8041198 11.1017912,24.1890297 7.11534208,28.0053609 Z"/>
      </g>
      <g transform="translate(0 27.035)">
        <path fill="#50DAA2" d="M7.2118093,9.26148113 C9.1528716,6.38868309 9.659694,4.68190187 8.73227649,4.14113747 C7.79878701,3.59683258 6.31988611,4.80213772 4.2955738,7.75705288 C1.87325956,6.03790458 0.544740778,3.52972268 0.310017447,0.232507188 C5.41380251,1.6092647 11.2674127,2.00705523 17.870848,1.42587876 C24.4742833,0.844702293 28.9956404,3.50252953 31.4349193,9.39936046 L35.4316785,26.0840035 L35.0072586,26.4756843 C33.6437475,20.941521 32.4529677,17.3663881 31.4349193,15.7502854 C26.7378838,8.29396903 22.0335365,11.7153247 11.4782101,10.2784568 C9.88651288,10.0617834 8.46437927,9.72279152 7.2118093,9.26148113 Z"/>
        <path fill="#2DB47D" d="M1.65992048,0.569793306 C6.43860079,1.67110186 11.8422433,1.95646368 17.870848,1.42587876 C24.4742833,0.844702293 28.9956404,3.50252953 31.4349193,9.39936046 L31.7106651,10.5504732 C25.1908914,6.19291498 19.5954777,4.01413725 14.92442,4.01413725 C10.7065684,4.01413725 6.28506859,2.8660226 1.65992048,0.569793306 Z"/>
      </g>
      <path fill="#50DAA2" d="M35.3257345,47.1599666 C36.0856209,49.202614 36.6590394,51.0112262 37.0459899,52.5858034 L36.1858622,52.5858034 C35.3474006,48.7022123 34.4202908,46.5823751 33.4045327,46.2262917 C31.8808955,45.6921667 28.9560439,47.0932755 24.80341,53.5298577 C22.0349875,57.8209125 17.9679876,59.4367689 12.6024106,58.3774269 C16.7708626,54.8803815 19.7714555,51.0894103 21.6041894,47.0045132 C24.3532902,40.8771676 34.1859049,44.0959955 35.3257345,47.1599666 Z"/>
      <path fill="#50DAA2" d="M65.6328274,50.2686612 C66.3927138,51.3610196 66.9661323,52.3282217 67.3530829,53.1702674 L66.4929551,53.1702674 C65.6544936,51.0934169 64.7273837,49.9597792 63.7116256,49.7693544 C62.1879885,49.4837173 59.2631369,50.2329964 55.110503,53.6751249 C52.3420804,55.9698772 48.2750806,56.8339981 42.9095035,56.2674876 C47.0779555,54.3973523 50.0785484,52.3700326 51.9112823,50.1855284 C54.6603831,46.9087722 64.4929978,48.6301235 65.6328274,50.2686612 Z" transform="matrix(-1 0 0 1 110.263 0)"/>
      <path fill="#50DAA2" d="M67.68837,46.7129239 L67.4283936,41.8809672 C67.2058984,40.9954052 66.6805551,40.5526243 65.8523638,40.5526243 C65.0241724,40.5526243 64.6470028,40.9954052 64.7208552,41.8809672 L65.2835742,46.2159812 C59.5609606,44.4696808 55.1572787,39.1995061 52.7386689,38.2975813 C49.5470381,37.1073888 44.6373173,41.498497 43.2477291,44.3090565 C42.3213369,46.1827628 41.024871,49.0985273 39.3583311,53.0563501 L38.2988118,53.0563501 C38.3424228,52.9466384 38.3751161,52.8644889 38.3968916,52.8099015 C42.8678826,41.6019024 46.7767428,35.42251 50.1234722,34.2717242 C55.180241,32.5329349 60.3477211,36.0985757 66.6639841,36.0985757 C70.8748261,36.0985757 74.2128464,35.7963299 76.678045,35.1918382 C78.7110202,41.6111914 76.8693726,45.3981819 71.1531022,46.5528098 C69.9594922,46.7939067 68.803205,46.8309706 67.68837,46.7129239 Z"/>
      <ellipse cx="37.64" cy="53.031" fill="#B7C6DD" rx="11.265" ry="1"/>
      <mask id="n" fill="white">
        <use xlink:href="#m"/>
      </mask>
      <use fill="#FFFFFF" transform="matrix(-1 0 0 1 75.28 0)" xlink:href="#m"/>
      <g mask="url(#n)">
        <g transform="matrix(-1 0 0 1 49.454 52.756)">
          <path fill="#D9E9FF" d="M19.9933919,21.8290692 C11.066307,20.8932668 7.15277147,17.0203536 8.25278539,10.2103295 C8.96484416,5.80207864 8.88535973,2.6109832 8.01433211,0.637043211 C7.69795406,-0.0799389786 5.08938664,-0.0799389786 0.188629866,0.637043211 L5.88573131,22.6851512 C10.0212653,23.028239 13.0364115,23.142294 14.93117,23.0273161 C16.8259285,22.9123383 18.5133358,22.5129226 19.9933919,21.8290692 Z"/>
          <ellipse cx="13.805" cy=".753" fill="#7FABE6" rx="11.34" ry="1"/>
        </g>
      </g>
    </g>
    <g transform="translate(174.815 161.481)">
      <path fill="#FFFFFF" d="M94.8507842,49.2054881 C94.8507842,49.2054881 98.3438902,48.9261223 105.330102,48.3673906 L104.5932,74.2143087 L100.315424,86.794224 L97.8426266,86.794224 C94.4597467,77.9325372 92.6712239,71.192616 92.4770581,66.5744605 C92.1858095,59.6472272 94.8507842,49.2054881 94.8507842,49.2054881 Z"/>
      <path fill="#8EA6BB" d="M116.702757,121.203124 L142.847966,110.335581 C142.431864,117.630797 140.363169,122.920356 136.641879,126.20426 C132.92059,129.488163 126.274216,131.889336 116.702757,133.40778 L116.702757,121.203124 Z M123.313102,59.7829547 L127.870432,57.3296764 C130.841071,61.2217201 133.088891,64.6387638 134.613893,67.5808073 C136.138895,70.5228508 138.061853,75.3153372 140.382767,81.9582663 L136.409019,84.1817293 L123.313102,59.7829547 Z M42.7777778,35.1185484 C74.3640741,63.0609162 90.3362962,77.0321001 90.6944442,77.0321001 C91.0525921,77.0321001 91.4548925,79.0498613 91.9013453,83.0853837 L71.6666667,72.0770715 L71.6666667,100.301836 L42.7777778,83.6911189 L42.7777778,35.1185484 Z M61.9474658,128.477979 L71.8470786,117.016809 L71.8470786,133.40778 L61.9474658,128.477979 Z" style="mix-blend-mode:multiply"/>
      <path fill="#FED9BF" d="M48.2867199 21.1220338C48.6094029 18.0320302 48.8912983 15.7068478 49.1324063 14.1464866 49.3735143 12.5861253 49.8175686 10.3454864 50.4645691 7.42456992 50.4645691 6.90494892 50.2191358 6.59976924 49.7282693 6.50903089 49.2374028 6.41829254 48.9000599 6.6312176 48.7162405 7.14780607L47.1941625 11.8059447C47.0847492 12.130028 46.8990274 12.2920697 46.636997 12.2920697 46.3749666 12.2920697 46.1719444 12.130028 46.0279302 11.8059447 45.4571174 9.18769742 44.9942966 7.22624172 44.6394676 5.92157759 44.2846387 4.61691347 43.7607477 2.95034622 43.0677947.921875854 42.8322131.210173944 42.4201343-.089444598 41.8315583.0230202269 41.2429823.135485052 41.0403525.547234365 41.223669 1.25826817 41.6891366 2.54114276 42.0128768 3.50761647 42.1948896 4.1576893 42.3769024 4.80776213 42.5772902 5.71325223 42.7960529 6.87415961 41.9390436 6.06166279 41.2993696 5.39134666 40.8770311 4.86321121 40.4546925 4.33507577 39.8109959 3.52357524 38.9459413 2.42870964 38.6702281 2.18518432 38.3702481 2.18518432 38.0460014 2.42870964 37.7217547 2.67223496 37.6484024 3.00522647 37.8259447 3.42768418 38.2621373 4.37392374 38.6878831 5.20522154 39.103182 5.92157759 39.518481 6.63793364 40.2717176 7.66640219 41.3628918 9.00698325 40.404602 9.37497512 39.6906542 9.68856825 39.2210482 9.94776265 38.7514422 10.206957 38.1021913 10.645768 37.2732955 11.2641956 36.9637675 11.6342812 36.7815213 11.9769059 36.726557 12.2920697 36.6715926 12.6072334 36.7140924 13.0659106 36.8540561 13.6681011L38.5323715 16.0633455C38.800361 16.2557833 39.0299199 16.3717188 39.2210482 16.4111519 39.4121764 16.4505849 39.7445454 16.4505849 40.2181551 16.4111519 40.4089278 18.5654227 40.6849767 20.050533 41.0463019 20.8664826 41.4076271 21.6824321 42.081458 22.3423541 43.0677947 22.8462483L48.2867199 21.1220338zM77.4476392 86.6799693C77.2615493 86.6799693 76.1132032 86.2029632 74.002601 85.2489508 72.7539358 84.6723137 71.7455065 84.1006725 70.9773131 83.5340274 70.2091196 82.9673822 69.1368809 82.0042532 67.7605969 80.6446402 66.9750953 80.2832151 66.3959193 80.2832151 66.0230688 80.6446402 65.6502182 81.0060653 65.6133804 81.4621253 65.9125552 82.0128204L68.0475297 84.4177906 63.8784516 84.4177906 59.1639328 87.1788165 63.2264383 94.8257928 68.305786 91.6781729C69.9154537 91.5229935 71.2392128 91.4638186 72.2770633 91.5006484 73.3149138 91.5374782 74.8628304 91.698559 76.9208131 91.9838909 77.4581203 88.4479432 77.633729 86.6799693 77.4476392 86.6799693z"/>
      <polygon fill="#FFFFFF" points="76.269 85.396 76.053 93.078 79.075 93.557 79.303 85.396"/>
      <path fill="#FFFFFF" d="M41.5443394,22.6231818 L49.4447458,19.7711745 L50.7029982,22.8462483 C44.789227,24.840001 41.8323414,25.8368774 41.8323414,25.8368774 C41.8323414,25.8368774 41.7363407,24.7656456 41.5443394,22.6231818 Z"/>
      <g transform="translate(86.111 20.011)">
        <path fill="#FED9BF" d="M20.953925,15.125158 C22.3709365,15.2828455 23.4722219,16.4702617 23.4722219,17.911678 C23.4722219,19.4604482 22.2007844,20.7159746 20.6323867,20.7159746 C20.4040771,20.7159746 20.1820602,20.6893697 19.9693419,20.6391282 L18.2521773,30.2557813 C18.0888482,31.1704751 16.7696988,34.1719149 13.3543071,33.3768004 C9.9389153,32.5816859 9.64159858,29.6709121 9.79995323,28.784077 L10.1135856,27.0276389 L9.24350368,26.8761399 C6.15436322,26.3382577 4.11031346,23.3249926 4.67799076,20.1458241 L6.38583741,10.5813544 C6.95351471,7.40218589 9.91795121,5.26100032 13.0070917,5.79888258 L16.7360141,6.4481639 C19.8251545,6.98604616 21.8692043,9.99931118 21.301527,13.1784797 L20.953925,15.125158 Z"/>
        <path fill="#FFC500" d="M6.63016516,10.7411847 C8.64633522,8.35725695 10.5762692,7.27679907 12.4199671,7.49981113 C14.2636649,7.72282319 15.831182,9.17079229 17.1225183,11.8437184 L20.3660382,10.7411847 L19.5472059,16.8334619 C20.2778784,15.9403581 20.855185,15.3774481 21.2791257,15.1447321 C21.7030663,14.9120161 22.1512174,14.9120161 22.6235788,15.1447321 C25.5439375,10.6783576 26.3813748,7.68828985 25.1358907,6.17452894 C23.8904067,4.66076802 21.7499916,4.16239299 18.7146456,4.67940384 C17.3387351,1.06809082 14.8360874,-0.380159069 11.2067025,0.334654168 C5.76262504,1.40687402 -0.0883606083,5.6677189 0.145687122,5.6677189 C0.257584365,5.6677189 2.0837366,5.76030522 4.25843142,7.49981113 C4.83026103,7.95720909 5.62083894,9.03766697 6.63016516,10.7411847 Z"/>
      </g>
      <path fill="#FF6345" d="M50.7029982,22.3615171 C57.3828635,35.38248 63.4324729,44.0511045 68.8518264,48.3673906 C74.27118,52.6836768 81.7761403,54.3098389 91.3667074,53.2458772 L89.1519257,79.2589673 C74.2986684,73.3247696 62.7831881,65.7762244 54.6054847,56.6133317 C46.4277813,47.4504391 41.9239164,37.191621 41.0938899,25.8368774 L50.7029982,22.3615171 Z"/>
      <path fill="#FF6345" d="M102.544783,49.779471 C101.806198,53.5852521 101.550535,56.9939624 101.777794,60.0056017 C102.005052,63.017241 102.857607,67.5185542 104.335457,73.5095412 L100.315424,86.794224 L79.3033375,85.3963229 L79.0746686,93.5568665 C95.1026484,99.2752614 103.522911,101.989391 104.335457,101.699255 C106.071155,101.07949 108.631919,98.7883355 112.017749,94.8257928 C116.418697,105.039137 118.787766,110.145809 119.124954,110.145809 C119.586945,110.145809 124.405953,109.958178 131.762603,106.541677 C133.883627,105.556652 137.406693,103.252746 142.331799,99.629958 C138.448077,86.0492975 134.174454,75.1650409 129.510929,66.977188 C124.847403,58.7893352 118.578172,53.0567629 110.703234,49.779471 C110.579514,48.8717809 110.389172,48.2678352 110.132208,47.9676341 C109.875244,47.667433 109.34046,47.4242417 108.527856,47.2380603 C107.122557,47.4158339 106.056639,47.6590252 105.330102,47.9676341 C104.603565,48.276243 103.675125,48.8801886 102.544783,49.779471 Z"/>
      <path fill="#DC3C1E" d="M95.8368835,86.794224 C97.5773349,90.3396961 98.4475606,92.1124321 98.4475606,92.1124321 C98.4475606,92.1124321 99.0701816,90.3396961 100.315424,86.794224 L95.8368835,86.794224 Z" opacity=".5"/>
      <path fill="#DC3C1E" d="M102.316608 52.964222C104.26767 54.1248136 105.637958 55.0919952 106.427471 55.8657667 107.216984 56.6395383 108.172259 57.951551 109.293295 59.8018049L104.5932 74.2143087C102.716262 67.9699119 101.777794 63.2336762 101.777794 60.0056017 101.777794 56.7775272 101.957399 54.4304006 102.316608 52.964222zM122.947809 76.3170975C109.855877 89.7228091 103.054559 96.425665 102.543853 96.425665 101.777794 96.425665 85.110817 94.8257928 83.423379 93.2314532 82.2984204 92.1685601 80.9250732 89.55685 79.3033375 85.3963229L79.3033375 93.5568665C94.6341506 99.4229112 103.118423 102.149138 104.756154 101.735548 106.393886 101.321957 108.814417 99.0187055 112.017749 94.8257928 115.879976 105.039137 118.249045 110.145809 119.124954 110.145809 120.000863 110.145809 126.223375 107.672951 137.792489 102.727235 132.508097 101.670717 128.493237 100.030521 125.747908 97.8066439 121.629914 94.4708291 120.905088 91.8856811 120.905088 90.9278053 120.905088 90.4529595 121.708401 87.6595886 122.461387 82.5051364 122.634486 81.3202186 122.796626 79.257539 122.947809 76.3170975zM50.4645691 22.8462483C46.7139361 26.5413335 44.8386196 29.4850979 44.8386196 31.6775416 44.8386196 34.9662072 55.876256 54.695719 61.0532773 58.787474 66.2302987 62.8792291 70.5907277 66.2044974 71.2876523 66.2044974 71.7522687 66.2044974 76.4943322 62.093924 85.5138428 53.8727771L89.7164718 53.8727771 89.7164718 79.2589673C75.0165773 73.7966764 63.3129149 66.2481312 54.6054847 56.6133317 45.8980545 46.9785322 41.3941896 36.7197141 41.0938899 25.8368774L50.4645691 22.8462483z"/>
      <path fill="#B72509" d="M92.0530913,86.794224 C92.0530913,86.794224 84.7313527,65.7596807 86.1400829,60.1591472 C87.0792363,56.4254582 88.8214445,53.8528213 91.3667074,52.4412367 C91.0086532,51.1082342 91.3713553,50.1717617 92.4548136,49.6318192 C93.5382719,49.0918767 94.3369288,48.9497663 94.8507842,49.2054881 C92.7275124,57.9054501 92.2748589,65.4038894 93.4928235,71.7008061 C94.7107881,77.9977228 96.1607225,83.0288621 97.8426266,86.794224 C93.9829364,86.794224 92.0530913,86.794224 92.0530913,86.794224 Z"/>
      <rect width="48.333" height="1.668" x="44.309" y="98.634" fill="#C3DDFF" rx=".833"/>
      <path fill="#C3DDFF" d="M31.1115862,69.7292198 L54.8886609,69.7292198 C56.1432307,69.7292198 57.2915466,70.3955867 57.8600777,71.4535309 L70.8251422,95.579413 C71.3813152,96.6143608 70.9452835,97.8798644 69.851238,98.4059943 C69.5392422,98.5560341 69.1941944,98.6342387 68.8441977,98.6342387 L45.067123,98.6342387 C43.8125531,98.6342387 42.6642372,97.9678718 42.0957061,96.9099277 L29.1306416,72.7840455 C28.5744686,71.7490977 29.0105004,70.4835941 30.1045459,69.9574642 C30.4165417,69.8074244 30.7615895,69.7292198 31.1115862,69.7292198 Z"/>
      <path fill="#FFFFFF" d="M50.1771267,86.961058 C51.5578386,86.961058 52.2900812,85.8411449 51.8126364,84.4596621 C51.3351916,83.0781793 49.8288579,81.9582663 48.4481461,81.9582663 C47.0674342,81.9582663 46.3351916,83.0781793 46.8126364,84.4596621 C47.2900812,85.8411449 48.7964148,86.961058 50.1771267,86.961058 Z"/>
      <g transform="translate(0 163.425)">
        <path fill="#FED9BF" d="M15.5658247,6.43710104 C15.4650359,8.71934033 16.4154339,9.98528054 18.4170187,10.2349217 C20.4186036,10.4845628 23.014151,10.2105972 26.2036611,9.41302478 L31.1141325,3.28412204 L24.1273407,-0.237261107 L20.1119262,4.03316686 L15.5658247,6.43710104 Z"/>
        <path fill="#141771" d="M16.2444458,5.87726213 C17.8645579,7.47142999 19.5238732,8.41052206 21.2223915,8.69453831 C22.9209098,8.97855457 24.9218605,9.16886797 27.2252436,9.26547852 L23.770169,13.6593826 L1.94881475,13.6593826 C0.651619151,13.6593826 0.00302135095,13.3143985 0.00302135095,12.6244304 C0.00302135095,11.9344622 0.318277253,11.5545858 0.948789057,11.4848011 C5.17283397,10.1162591 8.29641542,9.06114056 10.3195334,8.31944551 C12.3426514,7.57775046 14.3176222,6.76368933 16.2444458,5.87726213 Z"/>
      </g>
      <path fill="#0D58FF" d="M97.8426266,100.301836 L69.0367002,100.301836 C64.6791514,100.390896 61.2097382,101.247357 58.6284606,102.87122 C56.047183,104.495083 53.3037472,107.54708 50.3981534,112.02721 L21.2155055,165.4438 L30.2769076,170.566901 L71.2352452,117.731308 L74.6764764,117.731308 L97.8426266,100.301836 Z"/>
      <path fill="#073AEE" d="M97.8426266,100.301836 L69.0367002,100.301836 C64.6791514,100.390896 61.2097382,101.247357 58.6284606,102.87122 C56.047183,104.495083 53.3037472,107.54708 50.3981534,112.02721 L46.1236688,119.467216 C46.7264017,122.997678 47.4990846,125.788671 48.4417174,127.840194 C49.3843502,129.891717 51.4389393,133.419806 54.6054847,138.42446 L71.2352452,117.731308 L74.6764764,117.731308 L97.8426266,100.301836 Z" opacity=".6"/>
      <polygon fill="#000FD5" points="71.235 117.731 60.753 117.731 67.628 121.203" opacity=".5"/>
      <g transform="translate(49.997 163.662)">
        <path fill="#FED9BF" d="M17.4016853,0.255659032 C17.4016853,0.806280359 16.788323,3.01453678 15.5615983,6.8804283 L22.8842451,8.41932976 L25.0060427,2.51718003 C19.9364711,0.458878038 17.4016853,-0.294962294 17.4016853,0.255659032 Z"/>
        <path fill="#141771" d="M15.8173915,5.64000102 C13.0246218,7.31425114 10.829638,8.47235838 9.23244029,9.11432274 C7.63524254,9.75628711 5.24624415,10.4406275 2.06544512,11.1673438 C0.692510175,11.5048242 0.0060427019,11.9166853 0.0060427019,12.4029271 C0.0060427019,12.8891689 0.230717454,13.2289004 0.680066957,13.4221215 L22.6233342,13.4221215 L23.8949316,7.86073051 C21.6251159,8.11191907 20.0333794,8.11191907 19.1197221,7.86073051 C18.2060648,7.60954196 17.105288,6.86929879 15.8173915,5.64000102 Z"/>
      </g>
      <path fill="#0D58FF" d="M141.103768,99.4680373 L94.6785893,100.795891 C89.2115243,100.530473 85.3691073,101.040246 83.1513381,102.32521 C80.9335689,103.610174 78.5674536,106.697592 76.0529922,111.587465 L65.9940929,165.226949 L75.5525342,167.912128 L94.0675524,121.203124 L127.466361,121.203124 C134.232369,120.283603 138.778171,118.210837 141.103768,114.984826 C143.429365,111.758814 143.429365,106.586552 141.103768,99.4680373 Z"/>
      <path fill="#073AEE" d="M109.293295,100.301836 C112.234152,103.186946 114.364062,106.672554 115.683026,110.758662 C117.00199,114.844769 117.879708,118.326257 118.316179,121.203124 L128.440037,121.203124 C136.209209,119.422239 140.839796,116.867315 142.331799,113.538352 C143.823802,110.209388 143.414459,105.519284 141.103768,99.4680373 L109.293295,100.301836 Z" opacity=".7"/>
      <polygon fill="#000FD5" points="94.068 121.203 83.808 121.203 91.901 126.204"/>
    </g>
  </g>
</svg>
